<?xml version="1.0" encoding="UTF-8" standalone="no"?>
<!-- Created with Inkscape (http://www.inkscape.org/) -->

<svg
   xmlns:dc="http://purl.org/dc/elements/1.1/"
   xmlns:cc="http://creativecommons.org/ns#"
   xmlns:rdf="http://www.w3.org/1999/02/22-rdf-syntax-ns#"
   xmlns:svg="http://www.w3.org/2000/svg"
   xmlns="http://www.w3.org/2000/svg"
   xmlns:sodipodi="http://sodipodi.sourceforge.net/DTD/sodipodi-0.dtd"
   xmlns:inkscape="http://www.inkscape.org/namespaces/inkscape"
   width="80mm"
   height="120mm"
   viewBox="0 0 283.46457 425.19687"
   id="svg2"
   version="1.1"
   inkscape:version="0.91 r13725"
   sodipodi:docname="avatar.svg">
  <defs
     id="defs4" />
  <sodipodi:namedview
     id="base"
     pagecolor="#ffffff"
     bordercolor="#666666"
     borderopacity="1.0"
     inkscape:pageopacity="0.0"
     inkscape:pageshadow="2"
     inkscape:zoom="0.49497475"
     inkscape:cx="-166.54949"
     inkscape:cy="8.4835177"
     inkscape:document-units="px"
     inkscape:current-layer="layer1"
     showgrid="false"
     inkscape:window-width="1600"
     inkscape:window-height="838"
     inkscape:window-x="-8"
     inkscape:window-y="-8"
     inkscape:window-maximized="1"
     showguides="false" />
  <metadata
     id="metadata7">
    <rdf:RDF>
      <cc:Work
         rdf:about="">
        <dc:format>image/svg+xml</dc:format>
        <dc:type
           rdf:resource="http://purl.org/dc/dcmitype/StillImage" />
        <dc:title></dc:title>
      </cc:Work>
    </rdf:RDF>
  </metadata>
  <g
     inkscape:label="Layer 1"
     inkscape:groupmode="layer"
     id="layer1"
     transform="translate(0,-627.16541)">
    <path
       style="fill:#d5aa8e;fill-opacity:1;fill-rule:evenodd;stroke:none;stroke-width:1px;stroke-linecap:butt;stroke-linejoin:miter;stroke-opacity:1"
       d="m 104.8372,929.64599 c 5.71627,25.54477 49.93411,65.5417 27.49999,68.21428 l -8.92857,-2.14285 17.14286,18.21428 38.25873,1.8846 15.51139,-6.5096 c -17.36031,-21.60365 -3.6793,-52.8495 -4.42686,-82.28699 z"
       id="path4329"
       inkscape:connector-curvature="0"
       sodipodi:nodetypes="cccccccc"
       inkscape:export-xdpi="300"
       inkscape:export-ydpi="300" />
    <path
       style="fill:#ffccaa;fill-rule:evenodd;stroke:none;stroke-width:1px;stroke-linecap:butt;stroke-linejoin:miter;stroke-opacity:1"
       d="m 101.26844,939.56971 c -6.775983,-5.67485 -12.298852,-12.82981 -17.172582,-20.20305 -5.397347,-8.1654 -11.846527,-15.5417 -13.131987,-26.26397 -1.72976,-14.4283 -7.23266,-28.19956 -9.36185,-42.57434 -1.86338,-12.58024 -2.75998,-38.23786 -2.75998,-38.23786 l 16.66752,-85.86297 54.043149,-21.2132 88.38835,14.14214 22.72843,45.96194 c 0,0 -4.97388,56.49905 -10.10152,84.34774 -1.27481,6.92362 -4.37993,23.02266 -6.6212,33.51364 -1.73663,8.12886 -2.52646,10.89266 -4.25589,16.06614 -4.52069,13.52329 -6.30294,14.79221 -14.8818,26.18166 -6.12215,8.12788 -14.30752,15.37215 -23.73859,19.19289 -19.11411,7.74356 -41.48914,10.03782 -61.6193,5.55584 -6.84903,-1.52494 -12.80336,-6.1014 -18.18275,-10.6066 z"
       id="path4325"
       inkscape:connector-curvature="0"
       sodipodi:nodetypes="sssscccccsssssss"
       inkscape:export-xdpi="300"
       inkscape:export-ydpi="300" />
    <path
       style="fill:#d5aa8e;fill-opacity:1;fill-rule:evenodd;stroke:none;stroke-width:1px;stroke-linecap:butt;stroke-linejoin:miter;stroke-opacity:1"
       d="m 189.29067,897.96745 c 0.43077,-11.05813 -19.73622,-19.2264 -22.10978,-18.50181 l 4.54569,-1.01015 c 15.68107,-3.48469 23.56391,6.35106 17.56409,19.51196 z"
       id="path4208"
       inkscape:connector-curvature="0"
       sodipodi:nodetypes="ccsc"
       inkscape:export-xdpi="300"
       inkscape:export-ydpi="300" />
    <path
       style="fill:#d5aa8e;fill-opacity:1;fill-rule:evenodd;stroke:none;stroke-width:1px;stroke-linecap:butt;stroke-linejoin:miter;stroke-opacity:1"
       d="m 155.81668,738.04428 c 0,0 12.4017,3.61137 20.70812,4.54569 5.63519,0.63385 24.64111,8.13369 28.28428,3.78807 1.51813,-1.81085 -1.32353,-4.49764 -1.76777,-6.81854 -1.97284,-10.30687 -24.03698,-21.46582 -26.76904,-17.17259 z"
       id="path4203"
       inkscape:connector-curvature="0"
       sodipodi:nodetypes="cssscc"
       inkscape:export-xdpi="300"
       inkscape:export-ydpi="300" />
    <path
       style="fill:#d5aa8e;fill-opacity:1;fill-rule:evenodd;stroke:none;stroke-width:1px;stroke-linecap:butt;stroke-linejoin:miter;stroke-opacity:1"
       d="m 169.83719,828.39598 c -4.29481,-1.58891 -5.95336,-0.007 -8.39286,-3.57143 -2.4395,-3.56435 -1.2892,-10.54027 0.35715,-16.78571 1.64635,-6.24544 1.91379,-12.42449 11.42857,-18.75 9.51478,-6.32551 23.57808,-8.79977 33.03571,-4.82143 9.45763,3.97834 10.45245,7.00516 13.75,11.25 3.29756,4.24484 4.35713,10.52542 2.5,15.53572 -1.85713,5.0103 -4.48766,7.2783 -7.5,9.99999 -3.01234,2.72169 -13.81225,0.20628 -16.37319,1.96583 -2.56094,1.75955 6.89475,9.45939 3.15891,10.71275 -3.73584,1.25336 -9.05851,0.83462 -14.46429,0 -5.40578,-0.83462 -13.20519,-3.94681 -17.5,-5.53572 z"
       id="path4355"
       inkscape:connector-curvature="0"
       sodipodi:nodetypes="zzzzzzzzzzzz"
       inkscape:export-xdpi="300"
       inkscape:export-ydpi="300" />
    <path
       style="fill:#ad8a73;fill-opacity:1;fill-rule:evenodd;stroke:none;stroke-width:1px;stroke-linecap:butt;stroke-linejoin:miter;stroke-opacity:1"
       d="m 144.56934,1013.6639 c 0,0 -3.328,-22.70718 0.62499,-29.7322 3.95299,-7.02502 13.49991,-4.21424 15.71429,-10 2.21438,-5.78576 2.30015,-10.70108 -5,-17.85714 -7.30015,-7.15606 -41.42857,-10.71429 -41.42857,-10.71429 l -12.41072,-13.83929 c 2.91333,23.63454 13.06052,61.20746 -2.150736,65.85434 l 10.811456,8.69918 30.17857,7.5001 z"
       id="path4357"
       inkscape:connector-curvature="0"
       sodipodi:nodetypes="czzzcccccc"
       inkscape:export-xdpi="300"
       inkscape:export-ydpi="300" />
    <path
       style="fill:#d5aa8e;fill-opacity:1;fill-rule:evenodd;stroke:none;stroke-width:1px;stroke-linecap:butt;stroke-linejoin:miter;stroke-opacity:1"
       d="m 83.944898,720.1811 -16.606857,75.17885 -0.91993,0.26367 -7.39453,21.10352 c 0.34465,7.88056 1.19112,24.4367 2.57813,33.80078 2.12919,14.37478 7.63157,28.14592 9.36133,42.57422 1.28546,10.72227 7.73546,18.09827 13.132807,26.26367 4.87373,7.37324 10.395879,14.52828 17.171862,20.20313 1.68106,1.40787 3.42736,2.81217 5.23047,4.13867 l 9.41797,-2.11719 c -13.74547,-19.6962 -21.720243,-42.10795 -30.810542,-64.14453 -5.484767,-23.65709 1.01042,-30.97787 1.51563,-46.4668 l 4.752879,1.01832 16.460003,3.5266 14.14258,-5.05078 c 5.58464,8.47982 4.15168,20.46844 -0.71094,34.17188 l 8.39313,-6.78432 c 7.96465,-8.40451 8.45713,-1.94513 11.24945,-8.4e-4 l -1.24972,-48.21456 c 0.73013,-11.4991 -5.2113,-16.90965 -10.17913,-24.46401 0,0 -19.80584,-17.04074 -30.546933,-30.52516 -7.80726,-9.80127 -14.987659,-34.47512 -14.987659,-34.47512 z"
       id="path4345"
       inkscape:connector-curvature="0"
       sodipodi:nodetypes="ccccssssccccccccccccsc"
       inkscape:export-xdpi="300"
       inkscape:export-ydpi="300" />
    <path
       style="fill:#ececec;fill-rule:evenodd;stroke:none;stroke-width:1px;stroke-linecap:butt;stroke-linejoin:miter;stroke-opacity:1"
       d="m 81.507341,818.85648 1.262687,-4.73509 5.49271,-7.00793 8.460019,-6.31346 7.639273,-1.70463 10.2278,3.53554 8.9651,6.06091 5.05076,6.31345 -0.3788,2.71479 -6.31346,2.33598 -25.064403,1.70463 -12.626899,0.12627 -2.020307,-1.01015 z"
       id="path4363"
       inkscape:connector-curvature="0"
       inkscape:export-xdpi="300"
       inkscape:export-ydpi="300" />
    <path
       style="color:#000000;font-style:normal;font-variant:normal;font-weight:normal;font-stretch:normal;font-size:medium;line-height:normal;font-family:sans-serif;text-indent:0;text-align:start;text-decoration:none;text-decoration-line:none;text-decoration-style:solid;text-decoration-color:#000000;letter-spacing:normal;word-spacing:normal;text-transform:none;direction:ltr;block-progression:tb;writing-mode:lr-tb;baseline-shift:baseline;text-anchor:start;white-space:normal;clip-rule:nonzero;display:inline;overflow:visible;visibility:visible;opacity:1;isolation:auto;mix-blend-mode:normal;color-interpolation:sRGB;color-interpolation-filters:linearRGB;solid-color:#000000;solid-opacity:1;fill:#000000;fill-opacity:1;fill-rule:evenodd;stroke:none;stroke-width:1.18979096px;stroke-linecap:butt;stroke-linejoin:miter;stroke-miterlimit:4;stroke-dasharray:none;stroke-dashoffset:0;stroke-opacity:1;color-rendering:auto;image-rendering:auto;shape-rendering:auto;text-rendering:auto;enable-background:accumulate"
       d="m 103.55426,796.53909 c -2.46758,0.15911 -10.359763,2.50314 -12.989112,4.65708 -4.50886,4.34956 -8.443357,10.9183 -9.561097,17.12472 -0.35219,2.42412 1.02086,4.08155 3.203127,4.12891 12.709509,-0.26776 23.277722,0.28793 35.734362,-1.5 2.36071,-0.34961 4.60413,-0.79151 6.57422,-1.85938 0.41329,-0.30011 2.97997,-0.96104 3.04269,-1.46903 0.35537,-2.87842 -1.52971,-5.85149 -3.21457,-8.21902 -1.68485,-2.36754 -4.32472,-4.77778 -7.15708,-6.45872 -5.66473,-3.36187 -10.04452,-6.76489 -15.63254,-6.40456 z m -0.72737,3.24107 c 7.83603,0.36897 25.51329,9.78716 24.83567,17.60546 -1.59198,1.59387 -6.08899,2.11662 -7.89482,2.38644 -3.97291,0.58542 -9.25937,0.94893 -14.52929,1.16992 -10.539833,0.44199 -21.019532,0.31836 -21.019532,0.31836 l -0.002,0 c -1.00227,-0.009 -1.50501,-0.28485 -1.79492,-0.70312 -1.459217,-10.08035 12.488989,-19.35464 20.404892,-20.77706 z"
       id="path3386"
       inkscape:connector-curvature="0"
       sodipodi:nodetypes="scccccsssscccscccc"
       inkscape:export-xdpi="300"
       inkscape:export-ydpi="300" />
    <path
       style="fill:#000000;fill-rule:evenodd;stroke:none;stroke-width:1.18979096px;stroke-linecap:butt;stroke-linejoin:miter;stroke-opacity:1"
       d="m 131.40805,823.73902 c -4.70256,3.64018 -13.16551,10.01023 -21.8196,12.21348 -13.162463,1.55223 -21.461412,-5.36213 -29.167769,-6.92768 6.959577,1.03544 21.388509,5.42262 27.970309,4.19145 7.80859,-1.81165 17.43476,-6.9235 23.01706,-9.47725 z"
       id="path3417"
       inkscape:connector-curvature="0"
       sodipodi:nodetypes="ccccc"
       inkscape:export-xdpi="300"
       inkscape:export-ydpi="300" />
    <path
       style="fill:#000000;fill-rule:evenodd;stroke:none;stroke-width:1.18979096px;stroke-linecap:butt;stroke-linejoin:miter;stroke-opacity:1"
       d="m 216.68685,823.40004 c -4.70255,3.64017 -8.99186,9.94115 -17.64596,12.14441 -13.16247,1.55222 -21.46141,-5.36213 -29.16777,-6.92768 6.95957,1.03544 22.52316,5.64747 29.10497,4.4163 7.80858,-1.81165 12.12646,-7.07929 17.70876,-9.63303 z"
       id="path3417-4"
       inkscape:connector-curvature="0"
       sodipodi:nodetypes="ccccc"
       inkscape:export-xdpi="300"
       inkscape:export-ydpi="300" />
    <path
       style="fill:#008000;fill-rule:evenodd;stroke:#000000;stroke-width:1.18979096px;stroke-linecap:butt;stroke-linejoin:miter;stroke-opacity:1"
       d="m 93.779207,821.16663 c 0.82053,-20.75531 25.368373,-15.03429 21.791403,-0.99807 z"
       id="path4299"
       inkscape:connector-curvature="0"
       sodipodi:nodetypes="ccc"
       inkscape:export-xdpi="300"
       inkscape:export-ydpi="300" />
    <path
       sodipodi:nodetypes="ccc"
       inkscape:connector-curvature="0"
       id="path4301"
       d="m 98.539577,820.62753 c -2.27258,-11.5008 14.373323,-13.1532 12.615443,0.12627 z"
       style="fill:#000000;fill-rule:evenodd;stroke:#000000;stroke-width:1.18979096px;stroke-linecap:butt;stroke-linejoin:miter;stroke-opacity:1"
       inkscape:export-xdpi="300"
       inkscape:export-ydpi="300" />
    <path
       style="fill:#ececec;fill-rule:evenodd;stroke:none;stroke-width:1px;stroke-linecap:butt;stroke-linejoin:miter;stroke-opacity:1"
       d="m 165.79193,819.04589 2.52539,-5.1139 6.62912,-6.7554 2.33598,-1.8309 5.61897,-2.39911 8.52317,-1.95717 7.82868,-0.0631 6.31345,3.0936 4.60882,6.25031 4.10375,8.20749 0.3788,3.21987 -2.71478,1.32582 -3.97748,0.37881 -27.46352,-0.75762 -10.22779,-0.75761 -4.86136,-1.4521 z"
       id="path4365"
       inkscape:connector-curvature="0"
       inkscape:export-xdpi="300"
       inkscape:export-ydpi="300" />
    <path
       sodipodi:nodetypes="ccc"
       inkscape:connector-curvature="0"
       id="path4303"
       d="m 178.21033,821.42772 c 2.30776,-20.7553 24.3983,-12.40078 22.94596,1.63545 z"
       style="fill:#008000;fill-rule:evenodd;stroke:#000000;stroke-width:1.18979096px;stroke-linecap:butt;stroke-linejoin:miter;stroke-opacity:1"
       inkscape:export-xdpi="300"
       inkscape:export-ydpi="300" />
    <path
       style="fill:#000000;fill-rule:evenodd;stroke:#000000;stroke-width:1.18979096px;stroke-linecap:butt;stroke-linejoin:miter;stroke-opacity:1"
       d="m 182.17301,821.58803 c -2.79134,-10.98203 16.22645,-12.34257 14.56164,0.84381 z"
       id="path4305"
       inkscape:connector-curvature="0"
       sodipodi:nodetypes="ccc"
       inkscape:export-xdpi="300"
       inkscape:export-ydpi="300" />
    <path
       style="color:#000000;font-style:normal;font-variant:normal;font-weight:normal;font-stretch:normal;font-size:medium;line-height:normal;font-family:sans-serif;text-indent:0;text-align:start;text-decoration:none;text-decoration-line:none;text-decoration-style:solid;text-decoration-color:#000000;letter-spacing:normal;word-spacing:normal;text-transform:none;direction:ltr;block-progression:tb;writing-mode:lr-tb;baseline-shift:baseline;text-anchor:start;white-space:normal;clip-rule:nonzero;display:inline;overflow:visible;visibility:visible;opacity:1;isolation:auto;mix-blend-mode:normal;color-interpolation:sRGB;color-interpolation-filters:linearRGB;solid-color:#000000;solid-opacity:1;fill:#000000;fill-opacity:1;fill-rule:evenodd;stroke:none;stroke-width:1.18979096px;stroke-linecap:butt;stroke-linejoin:miter;stroke-miterlimit:4;stroke-dasharray:none;stroke-dashoffset:0;stroke-opacity:1;color-rendering:auto;image-rendering:auto;shape-rendering:auto;text-rendering:auto;enable-background:accumulate"
       d="m 196.60896,798.04355 c -5.58019,-0.35982 -14.68088,0.89677 -21.33567,4.06919 -3.3274,1.58621 -6.10685,8.63005 -8.17885,10.92718 -1.85901,2.061 -2.38148,5.41715 -2.33796,7.98758 0.005,0.2945 0.73989,-0.0334 0.77686,0.26605 7.38343,2.28604 16.60333,2.10316 23.4557,2.38271 5.32498,0.2164 10.50421,0.0302 14.40562,0.18564 2.54553,-0.20581 7.3067,1.37103 9.29104,-0.70726 0.62792,-0.6839 2.68612,-0.89795 2.64536,-1.91457 -0.0815,-2.03324 -0.40858,-5.87041 -2.03655,-8.3784 -1.62796,-2.50798 -3.8148,-7.96407 -6.18749,-9.90346 -2.72211,-1.48897 -5.1,-3.47588 -10.49806,-4.91466 z m 1.53094,3.33036 c 2.03726,0.13136 4.43546,1.37354 6.69532,3.2207 2.25985,1.84716 4.74067,6.60201 6.3005,9.00502 1.55982,2.40302 2.94247,6.05849 3.0078,7.68754 0.0327,0.81453 -1.44,0.79918 -1.79817,1.18929 -2.37103,1.22591 -5.57791,-0.71413 -8.39681,-0.37217 -3.90475,-0.15557 -10.09582,-1.23011 -15.41772,-1.44638 -3.27452,-0.47515 -21.68604,0.76484 -22.16883,-0.63858 -0.16206,-2.35811 1.1395,-3.8131 2.95452,-5.82533 1.91798,-2.12638 5.5112,-7.38257 8.74209,-8.92277 6.46177,-3.0804 14.82158,-4.23642 20.08129,-3.89726 z"
       id="path3386-2"
       inkscape:connector-curvature="0"
       sodipodi:nodetypes="csssccccsscccsscccccsscc"
       inkscape:export-xdpi="300"
       inkscape:export-ydpi="300" />
    <path
       style="fill:#ffffff;fill-rule:evenodd;stroke:none;stroke-width:1px;stroke-linecap:butt;stroke-linejoin:miter;stroke-opacity:1"
       d="m 99.907124,813.2031 c -0.27526,0.97299 0.778716,2.43825 1.789836,2.44925 1.47954,0.0161 2.52164,-1.83331 1.83694,-3.39126 -0.60061,-1.36662 -3.22041,-0.49438 -3.626776,0.94201 z"
       id="path4307"
       inkscape:connector-curvature="0"
       sodipodi:nodetypes="ssss"
       inkscape:export-xdpi="300"
       inkscape:export-ydpi="300" />
    <path
       sodipodi:nodetypes="ssss"
       inkscape:connector-curvature="0"
       id="path4309"
       d="m 183.79044,815.09147 c -0.29629,1.04728 0.83817,2.6244 1.92648,2.63624 1.59251,0.0174 2.71418,-1.97328 1.9772,-3.65018 -0.64647,-1.47096 -3.46629,-0.53212 -3.90368,1.01394 z"
       style="fill:#ffffff;fill-rule:evenodd;stroke:none;stroke-width:1px;stroke-linecap:butt;stroke-linejoin:miter;stroke-opacity:1"
       inkscape:export-xdpi="300"
       inkscape:export-ydpi="300" />
    <path
       style="fill:#8c7744;fill-opacity:1;fill-rule:evenodd;stroke:none;stroke-width:1px;stroke-linecap:butt;stroke-linejoin:miter;stroke-opacity:1"
       d="m 71.279741,792.61916 c 0,0 7.70327,-6.20482 18.699907,-7.52256 10.996642,-1.31774 33.707602,9.93185 42.544072,6.54547 8.83647,-3.38638 12.6837,-1.17084 10.75203,-8.01761 -1.93168,-6.84677 -18.6199,-9.86726 -26.34538,-10.62313 -7.72548,-0.75588 -15.66765,1.31193 -21.001763,1.89706 -5.334119,0.58513 -8.256539,-2.91268 -14.022526,0.42492 -5.76599,3.3376 -9.38274,14.37346 -9.38274,14.37346"
       id="path4311"
       inkscape:connector-curvature="0"
       sodipodi:nodetypes="czzzzzzc"
       inkscape:export-xdpi="300"
       inkscape:export-ydpi="300" />
    <path
       style="fill:#ffe3d0;fill-opacity:1;fill-rule:evenodd;stroke:none;stroke-width:1px;stroke-linecap:butt;stroke-linejoin:miter;stroke-opacity:1"
       d="m 191.17202,775.41992 c -4.78525,-0.2462 -13.63706,4.54569 -13.63706,4.54569 0,0 4.40421,-9.98051 13.13198,-16.66752 8.96499,-6.86877 22.79759,2.89445 32.82996,8.08122 7.42667,3.83961 12.12183,-4.54568 12.12183,-4.54568 l -7.57615,25.25381 c 0,0 -23.40075,-15.97449 -36.87056,-16.66752 z"
       id="path4359"
       inkscape:connector-curvature="0"
       sodipodi:nodetypes="scssccs"
       inkscape:export-xdpi="300"
       inkscape:export-ydpi="300" />
    <path
       style="fill:#8c7744;fill-opacity:1;fill-rule:evenodd;stroke:none;stroke-width:1px;stroke-linecap:butt;stroke-linejoin:miter;stroke-opacity:1"
       d="m 168.27969,792.40834 c -2.88738,-1.9743 -2.08957,-6.27732 0.21247,-10.41067 2.30203,-4.13334 10.97805,-5.86851 17.18813,-7.67001 6.21006,-1.8015 12.25304,-3.33208 18.71806,-1.89082 6.46502,1.44126 12.05607,3.39852 17.20947,7.86112 5.1534,4.4626 11.35654,13.65844 10.99651,17.88332 -0.36004,4.22486 2.63712,2.78438 -1.43568,3.15049 -4.07281,0.36611 -10.71434,-10.02779 -16.78456,-12.74776 -6.07023,-2.71997 -11.86664,-4.49861 -18.03354,-4.51326 -6.16692,-0.0146 -13.70723,2.93117 -18.29757,4.3008 -4.59035,1.36961 -6.88592,6.01109 -9.77329,4.03679 z"
       id="path4313"
       inkscape:connector-curvature="0"
       sodipodi:nodetypes="zzzzzzzzzzz"
       inkscape:export-xdpi="300"
       inkscape:export-ydpi="300" />
    <path
       style="fill:#8c7744;fill-opacity:1;fill-rule:evenodd;stroke:none;stroke-width:1px;stroke-linecap:butt;stroke-linejoin:miter;stroke-opacity:1"
       d="m 61.114881,846.57255 -11.86929,-12.56378 -6.56599,-5.55584 6.06092,-10.10152 -2.02031,-18.18275 -7.57614,1.51523 5.55584,-21.2132 -1.51523,-18.18275 -1.01015,-16.66752 10.6066,-13.13198 c 0,0 3.61882,-14.8322 7.57614,-21.2132 3.45147,-5.56533 9.24142,-9.28788 13.63706,-14.14214 2.55646,-2.82319 3.89399,-7.5098 6.96407,-9.41745 0.49217,-0.30582 -6.04221,-10.3892 -5.44884,-10.53306 1.92049,-0.4656 6.76063,6.63415 10.740027,10.7333 2.2536,2.32142 4.917329,2.65122 4.917329,2.65122 0,0 -0.994649,-19.30422 3.53554,-27.27412 2.96253,-5.21195 12.121823,-10.10152 14.142123,-11.11168 2.02031,-1.01015 18.53394,1.65291 26.76905,5.55584 4.11052,1.94813 10.6066,8.5863 10.6066,8.5863 0,0 15.36593,-6.00627 23.23351,-5.05076 18.98534,2.30574 37.48691,12.25788 51.51778,25.25381 10.46464,9.69275 16.86509,23.45772 21.71828,36.87057 6.03649,16.68318 7.78683,34.80426 8.58629,52.52793 0.95076,21.07789 -12.75997,66.70596 -12.75997,66.70596 l -9.46338,10.06563 5.55584,-62.62945 -4.04061,-24.74874 -7.57615,3.03046 -15.12422,-12.52334 -8.90397,4.38662 2.81499,-2.97496 c 0,0 3.33921,-9.62842 3.53553,-14.64721 0.16661,-4.25925 -9.36332,-9.88244 -12.12183,-13.13199 -4.82363,-5.68227 -12.52486,-6.20028 -19.95051,-5.55584 -12.00752,1.04208 -22.8547,18.94036 -22.8547,18.94036 0,0 -16.69899,-17.5157 -28.84909,-16.44036 -3.01288,0.26665 -6.87559,0.99187 -9.36701,1.05494 -1.7826,0.0451 -5.0274,-1.60557 -7.60982,-1.7943 -0.95316,-0.0697 -3.01564,-2.65495 -3.6815,-2.1675 -0.70697,0.51753 -0.21623,3.81868 -0.924596,4.46123 -6.159527,5.58725 -12.285146,15.42301 -16.869396,21.19945 -3.985267,5.02169 -5.643687,11.56495 -7.576137,17.67767 -2.95608,9.35067 -6.06092,26.76904 -6.06092,28.78934 0,2.02031 -8.33376,50.94958 -8.33376,50.94958 z"
       id="path4315"
       inkscape:connector-curvature="0"
       sodipodi:nodetypes="ccccccccccssssscssscssssccccccccssscssssssssc"
       inkscape:export-xdpi="300"
       inkscape:export-ydpi="300" />
    <path
       style="fill:#534729;fill-opacity:1;fill-rule:evenodd;stroke:none;stroke-width:1px;stroke-linecap:butt;stroke-linejoin:miter;stroke-opacity:1"
       d="m 91.798267,690.44084 -4.924489,-1.01015 c 0,0 -6.370947,7.25327 -8.586297,11.49048 -3.82345,7.31296 -7.82868,23.48605 -7.82868,23.48605 l 10.73287,-14.14213 c 0,0 7.316007,-0.0711 9.722716,3.28299 2.72325,3.79526 5.93464,19.1929 5.93464,19.1929 l 3.535533,-10.10153 -3.788073,-10.6066 z"
       id="path4199"
       inkscape:connector-curvature="0"
       sodipodi:nodetypes="ccsccscccc"
       inkscape:export-xdpi="300"
       inkscape:export-ydpi="300" />
    <path
       style="fill:#8c7744;fill-opacity:1;fill-rule:evenodd;stroke:none;stroke-width:1px;stroke-linecap:butt;stroke-linejoin:miter;stroke-opacity:1"
       d="m 135.86616,927.44788 c -5.0949,-0.1746 -12.13478,1.42818 -16.66751,3.283 -4.53273,1.85482 -8.03128,4.60119 -10.35407,6.81853 -2.32279,2.21734 -3.84771,2.0408 -4.04061,5.55584 -0.1929,3.51504 4.88587,9.8548 7.07107,12.37436 2.1852,2.51956 2.96277,2.03183 4.54569,3.53554 1.58292,1.50371 1.21008,3.98094 4.79822,5.55584 3.58814,1.5749 12.18747,-1.99156 16.16244,-0.50508 3.97497,1.48648 2.79241,5.50995 6.81853,6.31345 4.02612,0.8035 10.03296,-4.08159 14.39468,-5.3033 4.36172,-1.22171 6.44485,1.10294 11.61675,-2.27284 5.1719,-3.37578 15.8721,-13.86911 14.39468,-20.70813 -1.47742,-6.83902 -8.37975,-6.53837 -14.39468,-8.58629 -6.01493,-2.04792 -15.49178,-1.42064 -21.2132,-2.52539 -5.72142,-1.10475 -8.03709,-3.36093 -13.13199,-3.53553 z"
       id="path4317"
       inkscape:connector-curvature="0"
       sodipodi:nodetypes="zzzzzzzzzzzzzzz"
       inkscape:export-xdpi="300"
       inkscape:export-ydpi="300" />
    <path
       style="fill:#000000;fill-rule:evenodd;stroke:none;stroke-width:1px;stroke-linecap:butt;stroke-linejoin:miter;stroke-opacity:1"
       d="m 130.3729,857.50313 c -1.59768,0.93051 -5.92551,4.63509 -7.26912,6.99492 -1.34361,2.35983 -1.93474,4.31437 -1.48088,6.21936 0.45386,1.90499 2.50754,3.70469 3.92858,4.28572 1.42104,0.58103 2.47072,0.67504 3.39285,-0.17858 0.92213,-0.85362 -0.79471,-2.90676 0.53572,-4.10714 1.33043,-1.20038 5.09155,-1.08719 6.60714,-0.17857 1.51559,0.90862 1.63569,2.2721 1.78571,3.57143 0.15002,1.29933 -1.45233,1.94919 -0.89285,3.75 0.55948,1.80081 2.78187,3.59762 4.82142,4.10714 1.57712,0.394 5.1026,0.51113 7.70408,-0.0283 0.76278,-0.15817 1.7618,-1.19355 2.2933,-1.4742 2.34416,-1.23779 1.62677,-4.19584 3.75263,-5.99746 2.12586,-1.80162 2.85999,-3.55691 4.64285,-3.75 1.78286,-0.19309 3.58873,0.6785 4.28572,2.14286 0.69699,1.46436 -0.17757,2.36084 -1.25,3.39286 -1.07288,1.03202 -2.68502,0.96277 -3.92857,0.71428 -1.24355,-0.24849 -0.58393,-0.6468 -2.85715,-0.53571 -2.27322,0.11109 -2.61686,4.11971 -3.76346,4.97834 -0.6046,0.45275 -2.03197,1.65989 -3.06805,1.8971 -2.79589,0.6401 -6.42592,0.83682 -8.16849,0.44598 -2.38832,-0.53567 -3.90489,-3.14448 -5.17857,-4.46428 -1.27368,-1.3198 -0.25376,-1.55057 -1.96428,-2.32143 -1.71052,-0.77086 -5.89967,1.08272 -8.21429,0.17857 -2.31462,-0.90415 -3.88567,-2.37298 -4.82143,-4.64285 -0.93576,-2.26987 -1.35689,-5.06998 0.17857,-8.03572 2.14169,-4.7973 12.13318,-9.10404 8.92857,-6.96428 z"
       id="path4319"
       inkscape:connector-curvature="0"
       sodipodi:nodetypes="czzzzzzzzssszzzzzzssszzzzcc"
       inkscape:export-xdpi="300"
       inkscape:export-ydpi="300" />
    <path
       style="fill:#000000;fill-rule:evenodd;stroke:none;stroke-width:1px;stroke-linecap:butt;stroke-linejoin:miter;stroke-opacity:1"
       d="m 140.15931,812.29049 c 3.48179,16.71231 2.32189,37.48217 0,48.48732 -0.25834,1.22446 -2.63922,-1.53169 -2.52538,-2.77792 1.33697,-14.63604 1.91684,-23.87953 1.26269,-47.22463 -0.0184,-0.6572 1.1286,0.87159 1.26269,1.51523 z"
       id="path4321"
       inkscape:connector-curvature="0"
       sodipodi:nodetypes="sssss"
       inkscape:export-xdpi="300"
       inkscape:export-ydpi="300" />
    <path
       style="fill:#ececec;fill-rule:evenodd;stroke:none;stroke-width:1px;stroke-linecap:butt;stroke-linejoin:miter;stroke-opacity:1"
       d="m 107.45562,892.47135 2.02031,-1.6415 2.90419,-0.63134 3.15673,0.3788 6.02934,2.46225 9.7503,4.93996 5.93864,1.31036 19.69079,-1.38137 14.11333,-3.12377 11.66411,-5.4049 1.35833,4.84613 -0.71741,5.06494 -9.01011,8.38984 -14.31718,5.4742 -15.56367,1.83854 -19.28727,-3.40956 -10.50554,-5.49132 -4.8982,-5.57417 -2.01497,-4.33107 z"
       id="path4353"
       inkscape:connector-curvature="0"
       sodipodi:nodetypes="cccccccccccccccccccc"
       inkscape:export-xdpi="300"
       inkscape:export-ydpi="300" />
    <path
       style="color:#000000;font-style:normal;font-variant:normal;font-weight:normal;font-stretch:normal;font-size:medium;line-height:normal;font-family:sans-serif;text-indent:0;text-align:start;text-decoration:none;text-decoration-line:none;text-decoration-style:solid;text-decoration-color:#000000;letter-spacing:normal;word-spacing:normal;text-transform:none;direction:ltr;block-progression:tb;writing-mode:lr-tb;baseline-shift:baseline;text-anchor:start;white-space:normal;clip-rule:nonzero;display:inline;overflow:visible;visibility:visible;opacity:1;isolation:auto;mix-blend-mode:normal;color-interpolation:sRGB;color-interpolation-filters:linearRGB;solid-color:#000000;solid-opacity:1;fill:#000000;fill-opacity:1;fill-rule:evenodd;stroke:#000000;stroke-width:1px;stroke-linecap:butt;stroke-linejoin:miter;stroke-miterlimit:4;stroke-dasharray:none;stroke-dashoffset:0;stroke-opacity:1;color-rendering:auto;image-rendering:auto;shape-rendering:auto;text-rendering:auto;enable-background:accumulate"
       d="m 168.34779,895.1373 c -7.75232,1.51577 -21.10649,4.28381 -30.82812,3.61914 -10.88059,0.51877 -17.50537,-11.11067 -26.63282,-8.81641 -8.50335,0.0638 -3.51455,6.69391 -0.20312,12.30668 7.36545,10.08765 22.55014,12.03854 33.14062,13.25 l 0.0176,0.002 0.0176,0 c 12.95448,-0.88193 33.67229,-3.97405 39.77148,-16.08203 1.0003,-3.85011 1.56629,-7.5922 -0.29687,-10.60742 -4.63011,-0.23415 -10.34022,6.03356 -14.98637,6.32804 z m 13.98019,-5.33678 c 0.25269,0.55709 0.5593,1.67121 0.26667,2.78917 -0.33588,1.2832 -4.23759,4.62503 -4.10834,5.0818 0.21757,0.76885 4.47757,-3.39829 4.70492,-3.08649 0.67187,0.92143 0.14322,3.0007 -0.45867,4.39409 -7.68412,11.53783 -26.02262,15.82041 -38.81641,15.52149 -11.61656,-2.31132 -26.73538,-2.89004 -33.35323,-13.65458 -1.54225,-2.61599 -3.05513,-5.09714 -2.18528,-8.9082 0.17682,-0.75543 2.45893,-0.867 2.9389,-1.09543 0.47997,-0.22842 1.18379,-0.28346 2.07617,-0.14453 8.30749,1.79257 15.92425,8.32189 24.0586,9.05664 9.97042,0.68169 23.34963,-2.12174 31.08789,-3.63476 5.2632,-0.93491 9.10968,-4.60575 13.78878,-6.3192 z"
       id="path4327"
       inkscape:connector-curvature="0"
       sodipodi:nodetypes="cccccccccccsssccccccccc"
       inkscape:export-xdpi="300"
       inkscape:export-ydpi="300" />
    <path
       style="fill:#000000;fill-rule:evenodd;stroke:none;stroke-width:1px;stroke-linecap:butt;stroke-linejoin:miter;stroke-opacity:1"
       d="m 112.8729,897.32455 4.46429,2.14286 1.78712,0.67239 1.13677,-1.63712 0.63014,1.86852 4.36624,2.76328 11.13117,3.1007 -12.08715,-2.66062 -2.14298,-0.9069 -0.85598,1.61905 -0.69282,-2.11055 -8.09394,-3.06589 -5,-3.57143 0.26786,-1.16071 z"
       id="path4331"
       inkscape:connector-curvature="0"
       sodipodi:nodetypes="ccccccccccccccc"
       inkscape:export-xdpi="300"
       inkscape:export-ydpi="300" />
    <path
       style="fill:#2b0000;fill-rule:evenodd;stroke:none;stroke-width:1px;stroke-linecap:butt;stroke-linejoin:miter;stroke-opacity:1"
       d="m 98.406047,995.75573 c 0,0 -10.781919,4.71597 -19.360956,7.45357 -12.09861,3.8606 -25.60967,3.725 -36.87056,9.5964 -8.04757,4.1961 -14.29541,11.2554 -20.70813,17.6778 -7.34175,7.3527 -20.2030504,23.7385 -20.2030504,23.7385 l 282.5372194,-2.219 c 0,0 -27.45886,-21.9671 -37.76215,-31.9962 -11.0636,-10.7692 -20.62429,-7.792 -35.6735,-11.2417 -8.93569,-2.0482 -17.05376,-3.4764 -17.05376,-3.4764 0,0 -3.23897,1.0401 -6.57497,3.8642 -10.20993,8.6432 -24.88952,3.5938 -38.21991,2.4768 -11.76461,-0.9858 -29.93322,-0.5048 -38.91408,-8.1679 -3.35516,-1.0593 -8.42392,-7.70607 -11.196153,-7.70607 z"
       id="path4369"
       inkscape:connector-curvature="0"
       sodipodi:nodetypes="csssccsscsscc"
       inkscape:export-xdpi="300"
       inkscape:export-ydpi="300" />
    <path
       style="fill:#534729;fill-opacity:1;fill-rule:evenodd;stroke:none;stroke-width:1px;stroke-linecap:butt;stroke-linejoin:miter;stroke-opacity:1"
       d="m 49.596971,744.89092 -0.97964,-7.24776 -6.44336,7.97656 1.00977,16.66797 1.51562,18.18359 -5.55468,21.21289 7.57617,-1.51562 2.01953,18.18359 -6.06055,10.10156 6.56641,5.55469 6.99805,7.95312 c 0,0 -5.00627,-20.90106 -1.94727,-30.68164 1.53825,-4.91825 8.72998,-7.04114 9.5957,-12.12109 0.86769,-5.09151 -0.54279,-12.12766 -5.05078,-14.64844 -1.35465,-0.75749 -3.61057,2.25102 -4.54492,1.01172 -5.30644,-7.03839 10.05007,-15.15796 10.12695,-23.77008 0.023,-2.57266 -2.89793,-7.15359 -2.89793,-7.15359 5.55058,-7.15266 7.39435,-15.12905 8.71743,-23.22115 -2.90948,5.36381 -4.11045,12.15137 -9.57514,15.38583 0,0 0.82949,-6.64149 0.40663,-9.92573 -0.43548,-3.3823 -2.99446,-9.78264 -2.99446,-9.78264 0,0 -0.99465,6.94905 -2.49668,10.06084 -1.42193,2.94584 -5.98685,7.77538 -5.98685,7.77538 z"
       id="path4371"
       inkscape:connector-curvature="0"
       sodipodi:nodetypes="cccccccccccssssscccscsc"
       inkscape:export-xdpi="300"
       inkscape:export-ydpi="300" />
    <path
       style="fill:#534729;fill-opacity:1;fill-rule:evenodd;stroke:none;stroke-width:1px;stroke-linecap:butt;stroke-linejoin:miter;stroke-opacity:1"
       d="m 150.26084,743.09504 c 0,0 26.27281,-24.50851 39.57978,-22.88688 5.82056,0.70931 10.19013,11.45061 10.42277,16.82597 0.10711,2.47483 1.50933,6.00461 1.30224,9.29907 -0.44174,7.02716 -2.81747,13.93443 -2.81747,13.93443 0,0 15.46579,-9.67297 18.18275,-17.67766 4.86712,-14.33944 6.21844,-22.14492 -3.35171,-33.88036 -7.80868,-9.57543 -21.71582,-22.51269 -33.06455,-17.62691 -19.3914,8.34825 -30.25381,52.01234 -30.25381,52.01234 z"
       id="path4377"
       inkscape:connector-curvature="0"
       sodipodi:nodetypes="cssscsssc"
       inkscape:export-xdpi="300"
       inkscape:export-ydpi="300" />
    <path
       style="fill:#c4b286;fill-opacity:1;fill-rule:evenodd;stroke:none;stroke-width:1px;stroke-linecap:butt;stroke-linejoin:miter;stroke-opacity:1"
       d="m 227.33356,698.50168 c 1.02437,5.57743 10.45093,21.16567 8.23223,26.38433 -0.81811,1.92429 -32.14504,33.23967 -32.14504,33.23967 0,0 36.73871,-16.51894 39.1115,-33.16787 1.28499,-9.01623 -7.15078,-28.11112 -12.07632,-35.77158 -1.52673,-2.37446 -8.47577,-8.90757 -17.51746,-12.90292 -10.25274,-4.5305 -28.34912,-6.41036 -28.34912,-6.41036 0,0 19.0061,3.76934 28.94938,10.57183 8.01643,5.48428 12.98132,13.62759 13.79483,18.0569 z"
       id="path4379"
       inkscape:connector-curvature="0"
       sodipodi:nodetypes="sscssscss"
       inkscape:export-xdpi="300"
       inkscape:export-ydpi="300" />
    <path
       style="fill:#c4b286;fill-opacity:1;fill-rule:evenodd;stroke:none;stroke-width:1px;stroke-linecap:butt;stroke-linejoin:miter;stroke-opacity:1"
       d="m 248.00014,743.53183 c 0,0 0.006,7.03476 -2.08737,10.92417 -0.5869,1.09049 -2.10272,-3.40118 -3.73557,-3.21686 -1.3569,0.15318 0.48773,6.04352 0.33828,6.8005 -0.18684,0.94639 -4.04411,-2.38947 -4.08847,-1.43683 -0.13577,2.91523 3.14152,6.92585 4.22376,10.60845 0.54203,1.84438 -2.07649,1.83132 -2.13641,3.51752 -0.0675,1.89842 2.39157,5.47296 2.53656,7.13117 0.4263,4.87533 1.62268,9.7797 1.07226,14.64258 -0.72849,6.43612 -5.29814,12.10847 -5.71484,18.57227 -0.27197,4.21867 2.14258,12.5 2.14258,12.5 l 2.77539,1.44726 c 3.85026,-15.15579 8.5178,-36.4924 7.94922,-49.09766 -0.48667,-10.78915 -1.33163,-21.7229 -3.27539,-32.39257 z"
       id="path4381"
       inkscape:connector-curvature="0"
       sodipodi:nodetypes="csssssssssccsc"
       inkscape:export-xdpi="300"
       inkscape:export-ydpi="300" />
    <path
       style="fill:#534729;fill-opacity:1;fill-rule:evenodd;stroke:none;stroke-width:1px;stroke-linecap:butt;stroke-linejoin:miter;stroke-opacity:1"
       d="m 102.33719,685.71741 c 0,0 -2.758786,-14.70004 1.78571,-19.28571 4.96964,-5.01466 14.34522,-4.28812 21.07143,-2.14286 4.82263,1.53813 11.42857,10 11.42857,10 0,0 -17.76094,-4.06586 -25.35714,-0.35714 -4.42895,2.16236 -8.92857,11.78571 -8.92857,11.78571 z"
       id="path4386"
       inkscape:connector-curvature="0"
       sodipodi:nodetypes="csscsc"
       inkscape:export-xdpi="300"
       inkscape:export-ydpi="300" />
    <path
       style="fill:#534729;fill-opacity:1;fill-rule:evenodd;stroke:none;stroke-width:1px;stroke-linecap:butt;stroke-linejoin:miter;stroke-opacity:1"
       d="m 96.623187,781.43222 -15.357416,4.28515 -10.06976,6.90597 0.57422,2.40625 c 0,0 7.21374,-8.61557 18.210377,-9.93331 10.996642,-1.31774 33.706492,9.9313 42.542962,6.54492 1.42638,-0.54662 5.76648,-1.67561 6.92953,-1.99198 1.35957,-0.20406 2.69022,-0.43703 3.47196,-1.21891 0.77938,-0.58209 1.05808,-1.24764 0.82731,-1.99809 -15.70973,0.36283 -31.41946,-2.88491 -47.129183,-5 z"
       id="path4388"
       inkscape:connector-curvature="0"
       sodipodi:nodetypes="ccccsscccc"
       inkscape:export-xdpi="300"
       inkscape:export-ydpi="300" />
    <path
       style="fill:#d5aa8e;fill-opacity:1;fill-rule:evenodd;stroke:none;stroke-width:1px;stroke-linecap:butt;stroke-linejoin:miter;stroke-opacity:1"
       d="m 155.55148,832.50313 c 0.82662,7.64713 1.73814,15.31549 0.71428,22.5 0,0 4.78292,-0.50071 6.875,0.44643 1.80213,0.81588 4.19643,4.19642 4.19643,4.19642 0,0 -3.76269,-6.9632 -5.17858,-10.53571 -1.73608,-4.3804 -2.15627,-9.01708 -4.46427,-13.125 -0.66758,-1.18819 -2.14286,-3.48214 -2.14286,-3.48214 z"
       id="path4393"
       inkscape:connector-curvature="0"
       sodipodi:nodetypes="ccscssc"
       inkscape:export-xdpi="300"
       inkscape:export-ydpi="300" />
    <path
       style="fill:#534729;fill-opacity:1;fill-rule:evenodd;stroke:none;stroke-width:1px;stroke-linecap:butt;stroke-linejoin:miter;stroke-opacity:1"
       d="m 115.19349,935.00253 -5.95703,2.18555 c -0.1296,0.1202 -0.26955,0.24388 -0.39258,0.36132 -2.32279,2.21735 -3.84616,2.04161 -4.03906,5.55665 -0.1929,3.51504 4.88512,9.85348 7.07032,12.37304 2.1852,2.51956 2.962,2.03145 4.54492,3.53516 1.39991,1.32986 1.30219,4.55819 3.73553,6.1135 0.31811,0.20332 0.96412,0.77629 1.37896,0.95837 0.61851,0.27148 1.59094,-0.42059 2.43149,-0.43819 4.0357,-0.0845 10.12517,-2.81315 13.41495,-1.5829 3.97497,1.48648 2.79224,5.51095 6.81836,6.31445 4.02612,0.8035 10.04306,-4.04505 14.39453,-5.30273 3.99492,-1.15463 7.53973,-0.67992 10.17163,0.0115 0.19425,0.051 0.49394,-1.71063 0.67994,-1.81818 l -2.10742,-12.91016 c 0,0 -3.07155,1.7145 -4.64454,2.5 -4.57472,2.28448 -8.82215,6.14684 -13.92773,6.42969 -3.38294,0.18741 -7.26955,-0.79656 -9.64258,-3.21484 -2.79574,-2.84905 -3.57226,-11.42969 -3.57226,-11.42969 0,0 -1.4815,7.50456 -6.07032,8.21484 -4.58882,0.71028 -12.38245,-6.62414 -14.28711,-10.35742 -1.90466,-3.73328 0,-7.5 0,-7.5 z"
       id="path4395"
       inkscape:connector-curvature="0"
       sodipodi:nodetypes="cccssssssssssccsssczzcc"
       inkscape:export-xdpi="300"
       inkscape:export-ydpi="300" />
    <path
       style="fill:#534729;fill-opacity:1;fill-rule:evenodd;stroke:none;stroke-width:1px;stroke-linecap:butt;stroke-linejoin:miter;stroke-opacity:1"
       d="m 142.43216,705.7194 c -4.09582,16.31881 -2.93335,12.13034 -4.04061,16.79378 -4.90324,-12.89351 -13.9108,-7.83063 -21.21321,-10.22779 3.86933,-16.34907 16.50748,-16.30428 27.7792,-18.81409 z"
       id="path4436"
       inkscape:connector-curvature="0"
       sodipodi:nodetypes="ccccc"
       inkscape:export-xdpi="300"
       inkscape:export-ydpi="300" />
    <path
       style="fill:#c4b286;fill-opacity:1;fill-rule:evenodd;stroke:none;stroke-width:1px;stroke-linecap:butt;stroke-linejoin:miter;stroke-opacity:1"
       d="m 151.27099,676.2987 c 0,0 -14.42454,-11.48639 -22.72843,-15.27855 -5.11749,-2.33702 -10.66987,-4.70052 -16.28871,-4.41942 -4.00502,0.20036 -13.559373,4.20386 -13.559373,4.20386 l 5.099343,-6.0979 14.89975,-2.14657 20.8344,7.19734 9.34391,10.10152 c 0.40056,1.53021 2.35054,6.33717 2.39911,6.43972 z"
       id="path4201"
       inkscape:connector-curvature="0"
       sodipodi:nodetypes="csscccccc"
       inkscape:export-xdpi="300"
       inkscape:export-ydpi="300" />
    <path
       style="fill:#000000;fill-rule:evenodd;stroke:#000000;stroke-width:1.375;stroke-linecap:round;stroke-linejoin:round;stroke-miterlimit:4;stroke-dasharray:none;stroke-opacity:1"
       d="m 113.02943,651.34042 c -2.01305,0.0467 -4.00492,0.36986 -5.95312,1.09375 -6.13268,2.2787 -10.387083,5.73832 -13.257813,11.61719 -3.030879,6.20684 -4.364709,12.68718 -3.787109,19.57031 0.0424,0.50531 0.0859,3.73484 0.69141,6.71289 l -2.25195,-1.70508 c -5.28596,-4.09047 -8.314977,-12.55468 -15.419917,-12.55468 0,0 1.35228,0.49416 2.34961,1.875 1.79992,2.49206 3.79941,6.87263 4.21875,9.35546 -4.31588,8.82576 -12.36855,13.10943 -17.28125,19.30469 -1.9602,2.57782 -4.28463,4.95191 -5.71485,7.85742 -2.79495,5.67797 -2.29306,12.67764 -5.35742,18.21485 -2.69512,4.87001 -9.32345,7.21584 -11.07227,12.5 -3.71664,11.23003 4.07056,23.57358 3.03711,35.35742 -0.64585,7.3642 -5.71484,21.42773 -5.71484,21.42773 0,0 5.19043,-1.10362 7.27734,0.66993 3.89357,3.30895 3.15013,10.28517 2.41016,14.91015 -0.73997,4.62498 -6.11523,11.02735 -6.11523,11.02735 l 20.07226,18.12109 0.15235,-2.14649 -8.91407,-7.35937 c -3.60937,-3.46309 -5.78971,-5.90662 -8.87695,-8.86523 l 5.95898,-10.59766 c 0,0 2.39631,-14.09638 -2.67968,-17.85742 -1.98996,-1.47445 -6.96289,0.0449 -6.96289,0.0449 0,0 7.08522,-13.83712 7.67773,-20.26953 1.03223,-11.20618 -6.78476,-22.78495 -3.57227,-33.57031 1.55779,-5.23 7.69243,-7.91761 10.35743,-12.67969 3.35553,-5.996 3.27601,-13.55664 6.78711,-19.46289 3.57443,-6.01277 10.0305,-9.85163 14.10546,-15.53711 2.5433,-3.54848 6.35547,-11.45313 6.35547,-11.45313 -1.92259,-3.28103 -3.40954,-6.56076 -6.01172,-9.84179 5.22019,2.89528 7.664407,8.56583 11.443357,12.90234 l 3.86328,0.875 c 0.0336,0.14582 0.061,0.29616 0.0977,0.43945 0.87927,3.43478 1.85241,6.90648 2.80664,10.22266 -0.3298,0.1777 -5.343135,2.88174 -7.839805,4.53516 -4.039707,2.6753 -8.754747,4.83353 -11.607417,8.75 -2.67102,3.66708 -4.46289,12.85742 -4.46289,12.85742 0,0 3.37465,-8.62188 6.42773,-11.96485 4.62646,-5.06574 15.947752,-10.96751 18.097622,-12.0664 1.83032,6.25816 3.39453,11.23633 3.39453,11.23633 0,0 -2.51168,-11.98652 -4.80274,-25.53321 -0.98365,-5.81622 -0.95105,-10.94924 -0.65234,-12.29687 1.14986,-5.18757 1.53071,-9.60505 4.67187,-13.89063 2.974416,-4.05809 7.577942,-8.43652 12.501952,-9.4707 6.86742,-1.44235 15.37593,0.94013 21.84375,3.66211 5.03742,2.11999 9.08391,4.90655 13.00586,8.71289 2.76063,2.67925 7.32422,9.97461 7.32422,9.97461 0,0 -1.60471,-4.53255 -3.73829,-8.33594 -0.15013,-0.26762 9.9984,-4.70925 20.58399,-4.36328 12.67625,0.41431 25.54762,5.07644 25.24609,4.90234 -2.7054,-1.5621 -11.69464,-5.93556 -24.60937,-6.93359 -11.14311,-0.86112 -23.23356,3.3323 -23.41797,3.11523 -5.16475,-6.07955 -11.63353,-8.59452 -19.31836,-10.73437 -4.40479,-1.22652 -8.93847,-2.45813 -13.36719,-2.35547 z m 66.9043,16.07617 c -3.40978,0.0292 -6.64234,0.37012 -9.22266,1.22266 -9.85212,3.25514 -18.84532,10.4463 -24.08789,19.40039 -4.05824,6.93131 -5,23.57031 -5,23.57031 0,0 2.23308,-14.55781 5.62891,-19.98242 5.82936,-9.31201 13.72074,-17.4269 24.01367,-21.26758 7.48621,-2.79339 18.35718,1.42083 26.20117,2.94336 8.99891,1.7467 14.43737,4.35647 21.92383,9.64649 6.54463,4.62452 12.35008,9.51213 15.71484,16.78515 3.98005,8.60301 7.54432,20.77895 5,29.91016 -2.28388,8.19654 -9.96601,10.24249 -16.69726,15.44726 -7.5841,5.86421 -24.59766,15.04493 -24.59766,15.04493 0,0 12.66491,-4.42385 20.13281,-9.24219 7.96145,-5.13678 20.5761,-11.97586 24.01954,-20.80274 2.38591,-6.11601 0.11555,-12.74939 -1.51954,-19.10742 -2.62693,-10.21477 -5.89443,-19.6372 -13.48046,-26.96484 -7.1003,-6.85844 -24.73298,-13.65932 -25.44727,-13.83789 -0.53571,-0.13393 -12.35271,-2.8533 -22.58203,-2.76563 z"
       id="path4400"
       inkscape:export-xdpi="300"
       inkscape:export-ydpi="300"
       inkscape:connector-curvature="0" />
    <path
       style="fill:#000000;fill-rule:evenodd;stroke:#000000;stroke-width:1.375;stroke-linecap:butt;stroke-linejoin:round;stroke-miterlimit:4;stroke-dasharray:none;stroke-opacity:1"
       d="m 194.56933,724.64598 c -1.77465,-2.3443 -2.86574,-3.98772 -5.80357,-4.10714 -8.48511,-0.34492 -16.43304,6.11436 -23.57143,10.71429 -5.30585,3.41905 -14.82143,11.78571 -14.82143,11.78571 0,0 12.1419,-13.52242 19.28572,-18.21428 5.72935,-3.76289 14.1469,-6.76425 20.98214,-6.25001 3.62412,0.27266 3.19746,1.68199 5.53572,4.46429 3.83304,4.56096 7.44077,11.54256 7.49999,17.5 0.0202,2.03418 -2.05357,4.82143 -2.05357,4.82143 -0.57851,-6.83561 -1.89419,-13.73025 -7.05357,-20.71429 z"
       id="path4402"
       inkscape:connector-curvature="0"
       sodipodi:nodetypes="csscsssscc"
       inkscape:export-xdpi="300"
       inkscape:export-ydpi="300" />
    <path
       style="fill:#000000;fill-rule:evenodd;stroke:#000000;stroke-width:1.375;stroke-linecap:butt;stroke-linejoin:miter;stroke-miterlimit:4;stroke-dasharray:none;stroke-opacity:1"
       d="m 200.64076,735.71741 c -0.35714,0 -3.76202,-2.24445 -5.89286,-3.75 -2.56249,-1.81055 -4.41879,-4.96942 -7.32143,-6.16071 -3.13177,-1.28534 -9.10714,-1.69643 -9.10714,-1.69643 l -2.85714,-0.44643 c 0,0 3.93302,-0.76614 6.07143,-0.625 2.92138,0.19282 5.88522,1.07821 8.39285,2.58929 2.48748,1.49893 3.40347,3.47158 5.44643,5.53571 1.43607,1.45095 5.26786,4.55357 5.26786,4.55357 z"
       id="path4404"
       inkscape:connector-curvature="0"
       sodipodi:nodetypes="cssccsssc"
       inkscape:export-xdpi="300"
       inkscape:export-ydpi="300" />
    <path
       style="fill:#000000;fill-rule:evenodd;stroke:#000000;stroke-width:1.375;stroke-linecap:butt;stroke-linejoin:miter;stroke-miterlimit:4;stroke-dasharray:none;stroke-opacity:1"
       d="m 244.54947,729.42997 c 0,0 3.05579,12.7353 4.0253,18.14205 2.11861,11.81501 2.73836,23.59415 2.39014,35.59256 -0.27905,9.61526 -3.98038,19.11104 -5.90029,28.53681 -2.15161,10.56332 -3.64192,20.32105 -8.43837,29.97544 -2.29297,4.61533 -7.9893,11.22898 -7.9893,11.22898 0,0 4.16572,-1.07631 6.89993,-5.14748 2.05806,-3.0644 3.08655,-2.8511 4.61963,-6.69884 0.71499,-1.79448 1.00219,-5.08835 1.76514,-7.79443 0.88155,-3.12674 2.21876,-5.67816 2.68122,-7.6128 3.25606,-13.62142 7.60339,-28.23304 8.32107,-42.21982 0.38909,-7.58298 0.46195,-15.45755 -0.4438,-22.99629 -1.11104,-9.2474 -3.96209,-23.27239 -5.15537,-25.91952 -0.62366,-1.38349 -2.7753,-5.08666 -2.7753,-5.08666 z"
       id="path4410"
       inkscape:connector-curvature="0"
       sodipodi:nodetypes="csssscsssssssc"
       inkscape:export-xdpi="300"
       inkscape:export-ydpi="300" />
    <path
       style="color:#000000;font-style:normal;font-variant:normal;font-weight:normal;font-stretch:normal;font-size:medium;line-height:normal;font-family:sans-serif;text-indent:0;text-align:start;text-decoration:none;text-decoration-line:none;text-decoration-style:solid;text-decoration-color:#000000;letter-spacing:normal;word-spacing:normal;text-transform:none;direction:ltr;block-progression:tb;writing-mode:lr-tb;baseline-shift:baseline;text-anchor:start;white-space:normal;clip-rule:nonzero;display:inline;overflow:visible;visibility:visible;opacity:1;isolation:auto;mix-blend-mode:normal;color-interpolation:sRGB;color-interpolation-filters:linearRGB;solid-color:#000000;solid-opacity:1;fill:#000000;fill-opacity:1;fill-rule:evenodd;stroke:#000000;stroke-width:1.375;stroke-linecap:butt;stroke-linejoin:miter;stroke-miterlimit:4;stroke-dasharray:none;stroke-dashoffset:0;stroke-opacity:1;color-rendering:auto;image-rendering:auto;shape-rendering:auto;text-rendering:auto;enable-background:accumulate"
       d="m 127.7267,927.17719 c -2.76004,1.12026 -5.52388,2.24211 -12.46735,5.10547 l -7.28851,5.50363 -2.40065,1.56866 -0.99277,2.22738 c -2.34711,-0.43096 1.41898,5.49204 2.02736,6.89872 0.88286,2.04163 2.37725,3.79612 3.15513,5.88002 0.64513,1.72828 0.59375,5.57701 0.59375,5.57701 l 1.6529,-3.57813 2.43862,2.07953 2.34283,1.70404 2.38418,5.14326 c 3.97582,1.73383 0.71742,2.09335 4.74763,2.35158 -0.58716,-0.58238 -0.75341,-0.46911 -1.06699,-1.39992 0,0 0.40072,0.081 0.97739,0.10198 2.41226,0.0879 4.67979,-1.21454 7.11169,-1.3654 2.08882,-0.12958 4.28959,-0.77389 6.27735,-0.11914 1.30533,0.42996 2.44694,1.83362 3.42659,3.11253 0.92027,1.20139 3.39343,3.38185 3.39343,3.38185 0,0 2.15063,-0.0978 3.02397,-0.50182 2.53418,-1.17238 3.76115,-1.33328 6.28523,-2.52725 1.9574,-0.92592 3.6721,-2.42917 5.75977,-3.00391 2.01583,-0.55496 6.26243,-0.35465 6.26243,-0.35465 l 1.59291,-0.0301 0.017,4.26534 4.60352,-5.92187 c 6.65141,-5.51221 10.36697,-11.13295 13.3522,-18.89398 l -0.0818,-6.40345 -2.04237,-0.81474 c -0.1412,1.10991 -2.00877,-0.80134 -3.01316,-1.202 l -3.19531,-1.58622 c -1.45393,-0.66316 -3.09879,-1.1354 -5.26339,-1.08789 -2.28368,-0.20326 -2.50334,-1.43853 -3.22294,-2.42383 l -11.58091,-0.0684 -5.24554,0.37695 c -3.6097,-1.1918 -7.80968,-1.22945 -10.78488,-4.85351 l -9.29715,0.67968 z m 2.38643,1.0932 9.9375,0.0714 c 2.49825,3.21804 7.46153,2.56469 11.03711,3.86746 l 6.16658,-0.14592 10.80217,1.93945 5.31279,1.41211 2.82421,0.004 2.50922,1.34737 4.86188,2.71596 c 2.24215,12.06635 -13.29618,18.42517 -14.91881,25.48214 l 0.0783,-1.60823 -2.73677,0.16432 c 0,0 -4.85532,0.10942 -7.14859,0.81084 -2.10574,0.64406 -3.86692,2.11296 -5.85742,3.05469 -2.52161,1.19301 -2.92451,1.29172 -5.45667,2.46216 -0.66442,0.30712 -3.22754,0.25441 -3.22754,0.25441 0,0 -2.04232,-1.47698 -2.79319,-2.45712 -1.07956,-1.40917 -1.58645,-4.46794 -3.29746,-5.15832 -2.31129,-0.93259 -4.8637,1.11098 -7.32703,1.4902 -2.36095,0.36346 -4.11145,0.81598 -6.14836,0.52903 -1.21674,-0.17141 -3.44244,-1.31836 -3.44244,-1.31836 l 0.27147,2.65831 -0.94284,-1.13851 -0.91797,-0.47461 -2.19446,-4.894 -2.55042,-1.83211 -3.06278,-5.04828 -0.0823,2.59504 c 0,0 -0.68747,-0.39402 -0.95603,-1.17969 -0.74807,-2.1885 -2.1748,-4.06966 -3.09172,-6.19296 -0.91162,-2.11104 -1.83621,-5.07032 -1.83621,-5.07032 l 2.57785,-3.79493 6.43458,-3.74828 -0.7262,3.85076 2.72186,-5.47105 z"
       id="path4412"
       inkscape:connector-curvature="0"
       sodipodi:nodetypes="ccccccscccccccsssscsssccccccccccccccccccccccccccccssscssssccccccccsscccccc"
       inkscape:export-xdpi="300"
       inkscape:export-ydpi="300" />
    <path
       style="fill:#000000;fill-rule:evenodd;stroke:#000000;stroke-width:1.375;stroke-linecap:butt;stroke-linejoin:miter;stroke-miterlimit:4;stroke-dasharray:none;stroke-opacity:1"
       d="m 220.73005,899.82456 c 3.34367,-10.97928 5.41639,-19.57493 7.32142,-30.89286 0.79343,-4.71379 1.78572,-16.33929 1.78572,-16.33929 0,0 -1.23145,8.7983 -2.32143,12.85714 -3.09278,11.51695 -8.21428,32.58929 -8.21428,32.58929 -1.92481,7.46826 -6.13024,14.24731 -10.8603,21.30125 -4.84588,7.22665 -10.32344,13.77832 -19.09506,20.12732 l -4.6875,3.39286 c 4.58781,-1.4976 8.30769,-4.70244 10.66964,-6.91964 5.52758,-5.08507 10.0995,-10.21159 14.55697,-16.30091 2.2237,-3.03779 4.45306,-6.01441 6.29124,-9.27945 1.98592,-3.52745 3.37425,-6.66325 4.55358,-10.53571 z"
       id="path4416"
       inkscape:connector-curvature="0"
       sodipodi:nodetypes="sscssssccsss"
       inkscape:export-xdpi="300"
       inkscape:export-ydpi="300" />
    <path
       style="fill:#000000;fill-rule:evenodd;stroke:#000000;stroke-width:1.375;stroke-linecap:butt;stroke-linejoin:miter;stroke-miterlimit:4;stroke-dasharray:none;stroke-opacity:1"
       d="m 98.765767,716.96737 c 0,0 0.59559,4.03799 0.71484,6.07227 0.0662,1.12902 0.380687,2.32762 0,3.39258 -1.58031,4.42087 -6.05598,7.17998 -8.929679,10.89258 -4.01539,5.18758 -8.677567,10.02313 -11.607427,15.89257 -4.11237,8.23838 -6.32584,17.38005 -8.03515,26.42774 -0.33106,1.75235 -0.49456,4.22472 -0.59375,6.26367 -3.5188,16.45878 -5.32083,33.26182 -8.0625,50.12109 0,0 -1.83477,7.44485 -1.76953,11.23633 0.12242,7.11447 2.44841,14.02593 4.04101,20.96094 1.42362,6.19919 3.59594,12.21556 4.92578,18.43555 0.8825,4.12766 0.91621,8.4258 2.01953,12.5 0.51896,1.91634 1.23083,3.79504 2.14649,5.55664 5.37314,10.33721 11.597977,20.43206 19.445306,29.04297 3.32525,3.64881 11.490233,9.34375 11.490233,9.34375 l 0.63281,-2.02149 c 0,0 -7.281213,-5.85638 -10.355463,-9.34375 -4.918339,-5.57926 -8.686539,-12.08038 -12.751946,-18.30859 -3.04605,-4.66655 -6.74129,-9.05725 -8.71289,-14.26953 -2.22297,-5.87684 -1.99604,-12.41059 -3.28321,-18.56055 -1.97838,-9.45245 -6.11887,-18.52629 -6.81836,-28.1582 -0.18196,-2.50557 0.086,-8.07157 0.45508,-13.64844 0.2851,-4.30759 4.28365,-21.23876 6.15039,-35.22852 -0.7214,-8.54226 -0.66689,-7.62742 1.71289,-15.16211 -0.003,-1.19234 -0.16874,-2.16267 -0.35351,-2.89648 0.81473,-2.56316 1.83839,-5.80698 2.53906,-8.18359 2.07867,-7.05061 2.75969,-14.60041 5.89258,-21.25 3.188167,-6.76694 8.266547,-12.48667 12.857416,-18.39258 2.79743,-3.59875 7.892153,-5.91847 8.927723,-10.35742 0.81015,-3.47272 -2.677723,-10.35743 -2.677723,-10.35743 z"
       id="path4418"
       inkscape:export-xdpi="300"
       inkscape:export-ydpi="300"
       inkscape:connector-curvature="0" />
    <path
       style="fill:#000000;fill-rule:evenodd;stroke:#000000;stroke-width:1.375;stroke-linecap:round;stroke-linejoin:round;stroke-miterlimit:4;stroke-dasharray:none;stroke-opacity:1"
       d="m 230.64077,765.09241 c -2.25851,-1.34105 -4.80414,2.8687 -7.41072,2.54464 -0.87585,-0.10889 -1.41732,-1.40613 -2.40592,-2.1363 -1.98862,-1.4688 -4.29051,-2.81905 -4.29051,-2.81905 0,0 1.647,1.77411 3.22661,3.76637 0.98622,1.24385 2.12018,2.41839 3.20197,2.6622 2.74963,0.61968 5.15669,-3.73378 6.83035,-2.36608 1.08597,0.88744 0.3938,3.48532 0.95309,5.09936 1.59905,1.21734 1.24018,4.88405 1.79036,9.43948 0.37164,3.07713 1.9348,6.55977 1.83537,9.96692 -0.22448,7.69197 -4.75664,48.6599 -4.22347,50.0478 0.63653,0.62792 4.73615,-42.57952 5.90532,-47.48892 0.53701,-2.25492 3.38904,0.0998 3.33453,-0.41252 -0.14322,-1.34621 -1.63767,-0.73809 -2.52644,-3.94548 -1.39362,-5.02928 -3.05428,-10.43918 -2.9451,-10.24784 3.29175,5.7687 4.06085,3.03074 4.06085,3.03074 0,0 -4.65688,-5.03784 -5.60127,-10.59297 -0.44549,-2.62043 0.0491,-5.48896 -1.73502,-6.54835 z"
       id="path4422"
       inkscape:connector-curvature="0"
       sodipodi:nodetypes="ssscssscsscsssscss"
       inkscape:export-xdpi="300"
       inkscape:export-ydpi="300" />
    <path
       style="fill:#000000;fill-rule:evenodd;stroke:#000000;stroke-width:1.375;stroke-linecap:butt;stroke-linejoin:miter;stroke-miterlimit:4;stroke-dasharray:none;stroke-opacity:1"
       d="m 190.0356,940.20106 c 0,0 -2.78379,17.9619 -3.283,27.02158 -0.42843,7.77525 -1.14485,15.69913 0.25254,23.35977 1.01312,5.55403 5.80838,15.90989 5.80838,15.90989 l -1.51523,0.7576 c 0,0 -2.90886,-7.0865 -4.10375,-10.85911 -1.03683,-3.27358 -2.01899,-6.74019 -2.27284,-10.16465 -0.56698,-7.6487 -0.0586,-15.28522 0.69448,-22.91784 0.76036,-7.70674 3.40926,-22.98097 3.40926,-22.98097 z"
       id="path4424"
       inkscape:connector-curvature="0"
       sodipodi:nodetypes="cssccssscc"
       inkscape:export-xdpi="300"
       inkscape:export-ydpi="300" />
    <path
       style="fill:#000000;fill-rule:evenodd;stroke:none;stroke-width:1.375;stroke-linecap:butt;stroke-linejoin:miter;stroke-miterlimit:4;stroke-dasharray:none;stroke-opacity:1"
       d="m 102.53113,940.95867 c 0,0 1.89071,10.33457 2.65165,15.5311 0.85398,5.83187 2.22573,11.65787 2.14658,17.5514 -0.084,6.25553 0.15582,13.03599 -2.77792,18.56155 -0.9918,1.86801 -4.671956,4.29315 -4.671956,4.29315 l 2.651646,1.89403 c 0,0 3.44051,-3.4014 4.41942,-5.55583 2.70818,-5.96026 3.5295,-12.7725 3.53553,-19.31917 0.01,-10.86468 -5.80837,-32.07235 -5.80837,-32.07235 z"
       id="path4426"
       inkscape:connector-curvature="0"
       sodipodi:nodetypes="csssccsscc"
       inkscape:export-xdpi="300"
       inkscape:export-ydpi="300" />
    <path
       style="fill:#000000;fill-rule:evenodd;stroke:#000000;stroke-width:1.375;stroke-linecap:butt;stroke-linejoin:miter;stroke-miterlimit:4;stroke-dasharray:none;stroke-opacity:1"
       d="m 0.25320097,1053.4644 c 0,0 11.00236003,-13.226 16.66751003,-19.6979 5.53478,-6.323 10.08062,-13.8057 16.92006,-18.6879 6.78327,-4.8421 11.51125,-6.856 19.82424,-7.4499 13.51296,-0.9654 34.675447,-11.86189 42.624096,-11.83135 2.23269,-0.0356 3.591987,-0.0854 4.355603,0.28301 4.11262,2.96081 14.44658,10.11134 21.07932,12.17964 8.77759,2.7372 19.34604,2.0127 28.53681,2.2729 11.19169,0.3169 21.90928,2.6402 32.57742,-0.7576 4.20545,-1.3395 6.40698,-5.3117 10.73287,-6.1872 4.38019,-0.8865 10.86407,3.0096 16.7109,4.0491 11.6063,2.0635 15.2229,0.9824 22.55878,2.8957 14.31568,4.4062 23.38157,12.2221 31.33538,20.0356 11.16211,10.3814 22.2027,22.3908 22.2027,22.3908 l -5.55583,-1.0101 c 0,0 -10.95804,-8.192 -22.3024,-17.9647 -7.33262,-6.3168 -14.09148,-14.3966 -20.62909,-17.6432 -5.61877,-2.7902 -14.19218,-3.1213 -22.23399,-4.7456 -10.4637,-2.1133 -19.93988,-5.1034 -19.93988,-5.1034 7.1e-4,5e-4 -12.11775,7.6831 -19.1929,7.5762 -5.70184,-0.086 -7.9353,0.9184 -13.63705,1.0101 -8.72799,0.1405 -15.5775,-1.1001 -24.24367,-2.1466 -7.4116,-0.8949 -12.5706,-0.565 -19.57171,-3.1567 -6.72181,-2.4884 -20.076763,-10.10151 -20.076763,-10.10151 0,0 -36.274726,6.67211 -49.876276,12.87941 -11.83077,5.3992 -14.65339,7.6632 -24.4962,16.1625 -7.17474,6.1954 -20.3293204,25.7589 -20.3293204,25.7589 z"
       id="path4428"
       inkscape:connector-curvature="0"
       sodipodi:nodetypes="csssccsssssccccssscsssscsscc"
       inkscape:export-xdpi="300"
       inkscape:export-ydpi="300" />
    <path
       style="fill:#000000;fill-rule:evenodd;stroke:#000000;stroke-width:1.375;stroke-linecap:round;stroke-linejoin:round;stroke-miterlimit:4;stroke-dasharray:none;stroke-opacity:1"
       d="m 104.65862,701.07455 c 0,0 1.95408,-17.26939 7.52167,-21.6415 5.88338,-4.62009 14.5552,-1.85703 21.94261,-0.67992 4.18388,0.66666 11.60715,5.17857 11.60715,5.17857 0,0 -6.88825,-5.22884 -11.25,-6.36358 -8.03231,-2.08966 -18.56194,-4.62221 -24.82143,0.82787 -5.8382,5.08326 -5,22.67856 -5,22.67856 z"
       id="path4432"
       inkscape:connector-curvature="0"
       sodipodi:nodetypes="csscssc"
       inkscape:export-xdpi="300"
       inkscape:export-ydpi="300" />
    <path
       style="fill:#000000;fill-rule:evenodd;stroke:#000000;stroke-width:1.375;stroke-linecap:butt;stroke-linejoin:round;stroke-miterlimit:4;stroke-dasharray:none;stroke-opacity:1"
       d="m 152.15862,736.25313 c 0,0 7.61121,-21.80492 13.54976,-30.64404 3.07926,-4.58327 7.88495,-8.88621 12.20785,-12.32143 3.08698,-2.45309 9.9152,-3.12577 9.9152,-3.12577 0,0 -8.06929,-0.75498 -12.33751,2.46378 -6.829,5.14998 -14.1928,15.33618 -17.79959,23.09174 -2.98959,6.42842 -5.53571,20.53572 -5.53571,20.53572 z"
       id="path4434"
       inkscape:connector-curvature="0"
       sodipodi:nodetypes="csscssc"
       inkscape:export-xdpi="300"
       inkscape:export-ydpi="300" />
    <path
       style="fill:#000000;fill-rule:evenodd;stroke:#000000;stroke-width:1.375;stroke-linecap:round;stroke-linejoin:round;stroke-miterlimit:4;stroke-dasharray:none;stroke-opacity:1"
       d="m 149.62949,741.95862 -10.48033,-8.20749 c -8.29953,-5.08014 -16.31629,-8.72107 -24.62247,-5.55584 -1.56382,1.02623 -3.48923,0.60611 -5.55584,-0.37881 -1.84589,-0.70957 -3.96884,-0.83927 -5.36644,-2.14657 l -3.09358,-2.77792 c 3.47706,2.73333 7.93978,3.31057 11.74302,3.78807 9.45842,-2.58155 14.94925,-0.7673 23.73858,2.90419 6.21016,4.12479 9.09137,8.24958 13.63706,12.37437 z"
       id="path4438"
       inkscape:connector-curvature="0"
       sodipodi:nodetypes="ccccccccc"
       inkscape:export-xdpi="300"
       inkscape:export-ydpi="300" />
  </g>
</svg>
